<svg width="74" height="17" viewBox="0 0 74 17" fill="none" xmlns="http://www.w3.org/2000/svg">
<path d="M10.9 3.62C11.06 4.16667 11.2333 4.78667 11.42 5.48C11.62 6.16 11.8267 6.86667 12.04 7.6C12.2667 8.33333 12.4933 9.06667 12.72 9.8C12.9467 10.5333 13.1667 11.2133 13.38 11.84C13.5533 11.16 13.7267 10.42 13.9 9.62C14.0867 8.82 14.26 7.99333 14.42 7.14C14.58 6.28667 14.7333 5.44 14.88 4.6C15.04 3.74667 15.1867 2.92667 15.32 2.14H18.56C18.0933 4.46 17.5533 6.81333 16.94 9.2C16.34 11.5867 15.6867 13.8533 14.98 16H12.12C11.6533 14.72 11.2 13.38 10.76 11.98C10.32 10.5667 9.88667 9.15333 9.46 7.74C9.03333 9.15333 8.60667 10.5667 8.18 11.98C7.75333 13.38 7.30667 14.72 6.84 16H3.98C3.27333 13.8533 2.61333 11.5867 2 9.2C1.4 6.81333 0.866667 4.46 0.4 2.14H3.78C3.91333 2.92667 4.06 3.74667 4.22 4.6C4.38 5.44 4.54667 6.28667 4.72 7.14C4.89333 7.99333 5.06667 8.82 5.24 9.62C5.42667 10.42 5.61333 11.16 5.8 11.84C6.04 11.1867 6.27333 10.4933 6.5 9.76C6.72667 9.02667 6.94667 8.29333 7.16 7.56C7.37333 6.82667 7.56667 6.12 7.74 5.44C7.92667 4.76 8.09333 4.15333 8.24 3.62H10.9ZM24.2456 0.66C24.2723 0.846666 24.2923 1.04 24.3056 1.24C24.319 1.44 24.3256 1.58667 24.3256 1.68C24.3256 2.57333 24.1656 3.42667 23.8456 4.24C23.5256 5.04 23.1323 5.72 22.6656 6.28L20.5656 5.8C20.819 5.22667 21.019 4.58 21.1656 3.86C21.3256 3.14 21.4056 2.45333 21.4056 1.8C21.4056 1.77333 21.4056 1.72 21.4056 1.64C21.4056 1.54667 21.399 1.44667 21.3856 1.34C21.3856 1.22 21.379 1.1 21.3656 0.979999C21.3656 0.859999 21.359 0.753333 21.3456 0.66H24.2456Z" fill="#F2994A"/>
<path d="M27.2289 16V2.14H36.5089V4.76H30.3489V7.66H35.8289V10.28H30.3489V16H27.2289ZM48.658 10.72C48.658 11.5467 48.538 12.3067 48.298 13C48.058 13.68 47.7113 14.2667 47.258 14.76C46.8046 15.24 46.258 15.6133 45.618 15.88C44.9913 16.1467 44.2846 16.28 43.498 16.28C42.7246 16.28 42.018 16.1467 41.378 15.88C40.7513 15.6133 40.2113 15.24 39.758 14.76C39.3046 14.2667 38.9513 13.68 38.698 13C38.4446 12.3067 38.318 11.5467 38.318 10.72C38.318 9.89333 38.4446 9.14 38.698 8.46C38.9646 7.78 39.3246 7.2 39.778 6.72C40.2446 6.24 40.7913 5.86667 41.418 5.6C42.058 5.33333 42.7513 5.2 43.498 5.2C44.258 5.2 44.9513 5.33333 45.578 5.6C46.218 5.86667 46.7646 6.24 47.218 6.72C47.6713 7.2 48.0246 7.78 48.278 8.46C48.5313 9.14 48.658 9.89333 48.658 10.72ZM45.618 10.72C45.618 9.8 45.4313 9.08 45.058 8.56C44.698 8.02667 44.178 7.76 43.498 7.76C42.818 7.76 42.2913 8.02667 41.918 8.56C41.5446 9.08 41.358 9.8 41.358 10.72C41.358 11.64 41.5446 12.3733 41.918 12.92C42.2913 13.4533 42.818 13.72 43.498 13.72C44.178 13.72 44.698 13.4533 45.058 12.92C45.4313 12.3733 45.618 11.64 45.618 10.72ZM61.3064 10.72C61.3064 11.5467 61.1864 12.3067 60.9464 13C60.7064 13.68 60.3597 14.2667 59.9064 14.76C59.4531 15.24 58.9064 15.6133 58.2664 15.88C57.6397 16.1467 56.9331 16.28 56.1464 16.28C55.3731 16.28 54.6664 16.1467 54.0264 15.88C53.3997 15.6133 52.8597 15.24 52.4064 14.76C51.9531 14.2667 51.5997 13.68 51.3464 13C51.0931 12.3067 50.9664 11.5467 50.9664 10.72C50.9664 9.89333 51.0931 9.14 51.3464 8.46C51.6131 7.78 51.9731 7.2 52.4264 6.72C52.8931 6.24 53.4397 5.86667 54.0664 5.6C54.7064 5.33333 55.3997 5.2 56.1464 5.2C56.9064 5.2 57.5997 5.33333 58.2264 5.6C58.8664 5.86667 59.4131 6.24 59.8664 6.72C60.3197 7.2 60.6731 7.78 60.9264 8.46C61.1797 9.14 61.3064 9.89333 61.3064 10.72ZM58.2664 10.72C58.2664 9.8 58.0797 9.08 57.7064 8.56C57.3464 8.02667 56.8264 7.76 56.1464 7.76C55.4664 7.76 54.9397 8.02667 54.5664 8.56C54.1931 9.08 54.0064 9.8 54.0064 10.72C54.0064 11.64 54.1931 12.3733 54.5664 12.92C54.9397 13.4533 55.4664 13.72 56.1464 13.72C56.8264 13.72 57.3464 13.4533 57.7064 12.92C58.0797 12.3733 58.2664 11.64 58.2664 10.72ZM66.6548 10.66C66.6548 11.58 66.8615 12.32 67.2748 12.88C67.6882 13.44 68.3015 13.72 69.1148 13.72C69.3815 13.72 69.6282 13.7133 69.8548 13.7C70.0815 13.6733 70.2682 13.6467 70.4148 13.62V8.2C70.2282 8.08 69.9815 7.98 69.6748 7.9C69.3815 7.82 69.0815 7.78 68.7748 7.78C67.3615 7.78 66.6548 8.74 66.6548 10.66ZM73.3948 15.66C73.1282 15.74 72.8215 15.82 72.4748 15.9C72.1282 15.9667 71.7615 16.0267 71.3748 16.08C71.0015 16.1333 70.6148 16.1733 70.2148 16.2C69.8282 16.24 69.4548 16.26 69.0948 16.26C68.2282 16.26 67.4548 16.1333 66.7748 15.88C66.0948 15.6267 65.5215 15.2667 65.0548 14.8C64.5882 14.32 64.2282 13.7467 63.9748 13.08C63.7348 12.4 63.6148 11.64 63.6148 10.8C63.6148 9.94667 63.7215 9.18 63.9348 8.5C64.1482 7.80667 64.4548 7.22 64.8548 6.74C65.2548 6.26 65.7415 5.89333 66.3148 5.64C66.9015 5.38667 67.5682 5.26 68.3148 5.26C68.7282 5.26 69.0948 5.3 69.4148 5.38C69.7482 5.46 70.0815 5.57333 70.4148 5.72V0.959999L73.3948 0.48V15.66Z" fill="white"/>
</svg>
